{"title":"18+ Mike And Dave Need Wedding Dates 2016 Movies HD Cam XviD Cle","uid":15623429,"size":740282653,"categoryP":"video","categoryS":"movies","magnet":"?xt=urn:btih:e58a3292d4fb10eef9eccf5c8014020715af833f&amp;dn=18%2B+Mike+And+Dave+Need+Wedding+Dates+2016+Movies+HD+Cam+XviD+Cle&amp;tr=udp%3A%2F%2Ftracker.leechers-paradise.org%3A6969&amp;tr=udp%3A%2F%2Fzer0day.ch%3A1337&amp;tr=udp%3A%2F%2Fopen.demonii.com%3A1337&amp;tr=udp%3A%2F%2Ftracker.coppersurfer.tk%3A6969&amp;tr=udp%3A%2F%2Fexodus.desync.com%3A6969","seeders":4,"leechers":4,"uploader":"basicssom","files":2,"time":1471893757,"description":"----------------------------------------------------------------\r\n18+ Mike And Dave Need Wedding Dates 2016 English Movies HD Cam XviD Clean Audio New ☻rDX☻\r\n\r\nSCREEN SHOTS &amp; POSTER:\r\n  \nhttp://postimage.co.nr/2016/8/ebay/index.htm  \nhttp://postimage.co.nr/2016/8/ebay/1.html  \nhttp://postimage.co.nr/2016/8/ebay/2.html  \nhttp://postimage.co.nr/2016/8/ebay/3.html  \nhttp://postimage.co.nr/2016/8/ebay/4.html  \nhttp://postimage.co.nr/2016/8/ebay/5.html  \nhttp://postimage.co.nr/2016/8/ebay/6.html  \nhttp://postimage.co.nr/2016/8/ebay/7.html  \nhttp://postimage.co.nr/2016/8/ebay/8.html  \nhttp://postimage.co.nr/2016/8/ebay/9.html  \nhttp://postimage.co.nr/2016/8/ebay/10.html\r\n\r\nFormat                                   : Matroska\r\nFormat version                           : Version 4 / Version 2\r\nFile size                                : 698 MiB\r\nDuration                                 : 1 h 32 min\r\nOverall bit rate mode                    : Constant\r\nOverall bit rate                         : 1 055 kb/s\r\nMovie name                               : 18+ Mike And Dave Need Wedding Dates 2016 English Movies HD Cam XviD Clean Audio ☻rDX☻\r\n\r\nVideo\r\nID                                       : 2\r\nFormat                                   : AVC\r\nFormat/Info                              : Advanced Video Codec\r\nFormat profile                           :   \r\nFormat settings, CABAC                   : Yes\r\nFormat settings, ReFrames                : 2 frames\r\nFormat settings, GOP                     : M=1, N=12\r\nCodec ID                                 : V_MPEG4/ISO/AVC\r\nDuration                                 : 1 h 32 min\r\nBit rate mode                            : Constant\r\nBit rate                                 : 800 kb/s\r\nWidth                                    : 704 pixels\r\nHeight                                   : 296 pixels\r\nDisplay aspect ratio                     : 2.40:1\r\nFrame rate mode                          : Constant\r\nFrame rate                               : 29.970 (30000/1001) FPS\r\nColor space                              : YUV\r\nChroma subsampling                       : 4:2:0\r\nBit depth                                : 8 bits\r\nScan type                                : Progressive\r\nBits/(Pixel*Frame)                       : 0.128\r\nStream size                              : 515 MiB (74%)\r\nTitle                                    : ☻rDX☻\r\nDefault                                  : Yes\r\nForced                                   : No\r\n\r\nAudio\r\nID                                       : 1\r\nFormat                                   : AC-3\r\nFormat/Info                              : Audio Coding 3\r\nMode extension                           : CM (complete main)\r\nFormat settings, Endianness              : Big\r\nCodec ID                                 : A_AC3\r\nDuration                                 : 1 h 32 min\r\nBit rate mode                            : Constant\r\nBit rate                                 : 256 kb/s\r\nChannel(s)                               : 2 channels\r\nChannel positions                        : Front: L R\r\nSampling rate                            : 48.0 kHz\r\nFrame rate                               : 31.250 FPS (1536 spf)\r\nCompression mode                         : Lossy\r\nStream size                              : 169 MiB (24%)\r\nTitle                                    : ☻rDX☻\r\nDefault                                  : Yes\r\nForced                                   : No\r\n\r\nIMDB \nhttp://www.imdb.com/title/tt2823054/","torrent":{"xt":"urn:btih:e58a3292d4fb10eef9eccf5c8014020715af833f","amp;dn":"18%2B+Mike+And+Dave+Need+Wedding+Dates+2016+Movies+HD+Cam+XviD+Cle","amp;tr":["udp%3A%2F%2Ftracker.leechers-paradise.org%3A6969","udp%3A%2F%2Fzer0day.ch%3A1337","udp%3A%2F%2Fopen.demonii.com%3A1337","udp%3A%2F%2Ftracker.coppersurfer.tk%3A6969","udp%3A%2F%2Fexodus.desync.com%3A6969"],"infoHash":"e58a3292d4fb10eef9eccf5c8014020715af833f","infoHashBuffer":{"type":"Buffer","data":[229,138,50,146,212,251,16,238,249,236,207,92,128,20,2,7,21,175,131,63]},"announce":[],"urlList":[]}}